<svg xmlns="http://www.w3.org/2000/svg" width="295" height="329" viewBox="0 0 295 329" fill="none" transform="matrix(-1, 0, 0, 1, 0, 0)">
<mask id="mask0_3_36555" style="mask-type:luminance" maskUnits="userSpaceOnUse" x="112" y="61" width="136" height="155" fill="#000000">
<path fill-rule="evenodd" clip-rule="evenodd" d="M186.646 63.6451C180.717 65.1275 175.056 67.431 169.672 70.2785C169.528 70.2678 169.406 70.1967 169.257 70.1967C166.861 70.1967 164.856 71.544 163.709 73.4636C163.14 73.3036 162.58 73.1117 161.961 73.1117C158.932 73.1117 156.494 75.2055 155.735 77.9961C155.427 77.9498 155.156 77.8112 154.838 77.8112C151.211 77.8112 148.272 80.7546 148.272 84.3806C148.272 84.4517 148.309 84.5121 148.316 84.5832L147.476 84.3747C147.335 84.3462 147.191 84.3273 147.042 84.3273C143.415 84.3273 140.473 87.2671 140.473 90.8931C140.473 91.2699 140.627 91.6005 140.69 91.9595C140.515 91.9453 140.364 91.86 140.189 91.86C136.562 91.86 133.621 94.7999 133.621 98.4258C133.621 99.5883 134.001 100.616 134.528 101.561C130.966 101.636 128.093 104.522 128.093 108.102C128.093 109.471 128.612 110.672 129.326 111.728C126.116 112.158 123.6 114.796 123.6 118.127C123.6 119.78 124.265 121.248 125.277 122.403C122.542 123.196 120.508 125.617 120.508 128.607C120.508 130.096 121.092 131.397 121.924 132.499C119.105 133.235 116.977 135.684 116.977 138.738C116.977 140.732 117.916 142.46 119.324 143.665C116.764 144.561 114.904 146.932 114.904 149.797C114.904 152.012 116.072 153.875 117.752 155.062C114.923 155.798 112.792 158.251 112.792 161.304C112.792 164.148 114.62 166.512 117.147 167.426C114.649 168.357 112.855 170.714 112.855 173.533C112.855 177.159 115.793 180.102 119.42 180.102C119.608 180.102 119.767 180.01 119.953 179.992C118.876 181.162 118.174 182.701 118.174 184.421C118.174 188.047 121.115 190.987 124.742 190.987C125.611 190.987 126.43 190.799 127.188 190.493C127 191.097 126.807 191.709 126.807 192.374C126.807 196 129.746 198.943 133.376 198.943C134.596 198.943 135.675 198.516 136.653 197.937C136.646 198.076 136.578 198.186 136.578 198.328C136.578 201.95 139.516 204.89 143.143 204.89C144.351 204.89 145.422 204.474 146.395 203.906C146.395 203.923 146.384 203.945 146.384 203.962C146.384 207.588 149.326 210.528 152.953 210.528C154.903 210.528 156.603 209.64 157.805 208.289C158.35 211.371 160.916 213.749 164.149 213.749C166.188 213.749 167.935 212.768 169.14 211.314C170.186 213.557 172.425 215.132 175.061 215.132C177.111 215.132 178.863 214.14 180.068 212.672C181.27 213.994 182.962 214.855 184.886 214.855C188.513 214.855 191.455 211.915 191.455 208.289C191.455 208.026 191.332 207.805 191.306 207.553C191.661 207.613 191.984 207.763 192.359 207.763C195.986 207.763 198.925 204.826 198.925 201.2C198.925 199.067 197.84 197.258 196.265 196.06C198.359 194.962 199.832 192.836 199.832 190.308C199.832 188.339 198.925 186.633 197.553 185.424C199.874 184.414 201.506 182.111 201.506 179.413C201.506 177.187 200.325 175.317 198.628 174.127C200.842 173.071 202.398 170.856 202.398 168.24C202.398 166.071 201.28 164.244 199.663 163.046C200.456 161.965 201.016 160.7 201.016 159.253C201.016 156.306 199.043 153.907 196.37 153.075C196.065 145.343 196.451 138.766 200.153 127.544C204.419 125.802 208.557 123.751 212.505 121.365C227.341 112.396 239.631 99.2683 247.602 83.8722C246.081 82.5356 244.473 81.3056 242.785 80.193L245.946 76.8514C230.121 62.9555 207.079 58.5368 186.646 63.6451Z" fill="white"/>
</mask>
<g mask="url(#mask0_3_36555)">
<path fill-rule="evenodd" clip-rule="evenodd" d="M265.375 43.8135H95.0178V232.904H265.375V43.8135Z" fill="#211E1F"/>
</g>
<mask id="mask1_3_36555" style="mask-type:luminance" maskUnits="userSpaceOnUse" x="143" y="69" width="125" height="260" fill="#000000">
<path fill-rule="evenodd" clip-rule="evenodd" d="M150.028 101.463C137.846 122.635 146.378 168.937 148.579 179.136C150.779 189.335 156.065 199.292 164.844 204.93C176.286 212.282 180.489 197.326 188.397 223.558C190.843 231.67 192.272 240.17 188.864 247.93C185.515 255.565 166.097 299.308 160.892 327.692L160.662 328.991H266.922C267.842 294.2 262.017 278.562 247.144 252.505C213.893 194.244 251.728 134.793 247.285 115.39C242.841 95.9845 230.114 77.1046 211.009 71.5057C187.565 64.6342 162.21 80.2862 150.028 101.463Z" fill="white"/>
</mask>
<g mask="url(#mask1_3_36555)">
<path fill-rule="evenodd" clip-rule="evenodd" d="M284.789 52.0908H125.847V346.764H284.789V52.0908Z" fill="#9B5627"/>
</g>
<mask id="mask2_3_36555" style="mask-type:luminance" maskUnits="userSpaceOnUse" x="160" y="243" width="108" height="86" fill="#000000">
<path fill-rule="evenodd" clip-rule="evenodd" d="M232.524 243.456C227.715 252.147 224.566 258.439 224.566 258.439C224.566 258.439 205.311 249.861 186.277 253.855C179.859 268.698 165.303 303.663 160.895 327.666L160.661 328.985H266.921L266.968 326.921C267.594 294.263 261.962 278.69 248.041 254.082L247.141 252.499L246.165 250.751C244.836 248.319 243.63 245.886 242.536 243.454L232.524 243.456Z" fill="white"/>
</mask>
<g mask="url(#mask2_3_36555)">
<path fill-rule="evenodd" clip-rule="evenodd" d="M318.698 231.329H125.243V373.051H318.698V231.329Z" fill="#ffc220"/>
</g>
<mask id="mask3_3_36555" style="mask-type:luminance" maskUnits="userSpaceOnUse" x="143" y="116" width="25" height="91" fill="#000000">
<path fill-rule="evenodd" clip-rule="evenodd" d="M144.758 118.093C141.305 140.516 146.636 169.964 148.472 178.644L148.578 179.141L148.845 180.316C151.095 189.708 155.994 198.76 163.849 204.268L164.846 204.938L165.589 205.391C166.249 205.77 166.884 206.076 167.498 206.322C159.953 194.3 159.965 178.173 167.552 166.18C161.38 166.169 155.445 161.981 153.529 156.286C159.578 152.874 164.652 147.538 166.751 141.057C168.853 134.577 167.651 126.966 162.931 121.957C158.446 117.201 150.72 115.374 144.758 118.093Z" fill="white"/>
</mask>
<g mask="url(#mask3_3_36555)">
<path fill-rule="evenodd" clip-rule="evenodd" d="M185.523 99.0566H103.902V224.739H185.523V99.0566Z" fill="#9B4002"/>
</g>
<mask id="mask4_3_36555" style="mask-type:luminance" maskUnits="userSpaceOnUse" x="185" y="141" width="13" height="11" fill="#000000">
<path fill-rule="evenodd" clip-rule="evenodd" d="M185.935 145.366C185.147 148.181 187.045 151.036 190.174 151.747C193.301 152.454 196.477 150.744 197.264 147.929C198.049 145.113 196.151 142.259 193.024 141.551C189.896 140.844 186.722 142.554 185.935 145.366Z" fill="white"/>
</mask>
<g mask="url(#mask4_3_36555)">
<path fill-rule="evenodd" clip-rule="evenodd" d="M215.217 123.622H167.984V169.686H215.217V123.622Z" fill="#211E1F"/>
</g>
<mask id="mask5_3_36555" style="mask-type:luminance" maskUnits="userSpaceOnUse" x="147" y="140" width="13" height="11" fill="#000000">
<path fill-rule="evenodd" clip-rule="evenodd" d="M147.616 143.98C146.828 146.795 148.729 149.653 151.855 150.361C154.984 151.068 158.158 149.358 158.948 146.543C159.732 143.731 157.832 140.876 154.705 140.166C151.579 139.458 148.403 141.168 147.616 143.98Z" fill="white"/>
</mask>
<g mask="url(#mask5_3_36555)">
<path fill-rule="evenodd" clip-rule="evenodd" d="M176.899 122.236H129.663V168.3H176.899V122.236Z" fill="#211E1F"/>
</g>
<mask id="mask6_3_36555" style="mask-type:luminance" maskUnits="userSpaceOnUse" x="156" y="182" width="25" height="9" fill="#000000">
<path fill-rule="evenodd" clip-rule="evenodd" d="M156.041 182.447C156.041 182.447 157.42 189.799 165.425 190.474C175.678 191.338 180.989 182.447 180.989 182.447H156.041Z" fill="white"/>
</mask>
<g mask="url(#mask6_3_36555)">
<path fill-rule="evenodd" clip-rule="evenodd" d="M198.765 164.678H138.268V208.314H198.765V164.678Z" fill="white"/>
</g>
<mask id="mask7_3_36555" style="mask-type:luminance" maskUnits="userSpaceOnUse" x="159" y="61" width="136" height="155" fill="#000000">
<path fill-rule="evenodd" clip-rule="evenodd" d="M162.4 75.939L161.335 76.8514L164.495 80.193C162.81 81.3056 161.199 82.5356 159.679 83.8722C167.65 99.2683 179.939 112.396 194.775 121.365C198.723 123.751 202.864 125.802 207.13 127.544C210.832 138.766 211.216 145.343 210.911 153.075C208.238 153.907 206.267 156.306 206.267 159.253C206.267 160.7 206.825 161.965 207.617 163.046C205.998 164.244 204.882 166.071 204.882 168.24C204.882 170.856 206.441 173.071 208.655 174.127C206.955 175.317 205.774 177.187 205.774 179.413C205.774 182.111 207.406 184.414 209.729 185.424C208.355 186.633 207.45 188.339 207.45 190.308C207.45 192.836 208.924 194.962 211.018 196.06C209.44 197.258 208.355 199.067 208.355 201.2C208.355 204.826 211.294 207.763 214.923 207.763C215.296 207.763 215.62 207.613 215.974 207.553C215.948 207.805 215.828 208.026 215.828 208.289C215.828 211.915 218.767 214.855 222.394 214.855C224.318 214.855 226.013 213.994 227.215 212.672C228.42 214.14 230.169 215.132 232.222 215.132C234.855 215.132 237.097 213.557 238.14 211.314C239.345 212.768 241.092 213.749 243.131 213.749C246.364 213.749 248.933 211.371 249.478 208.289C250.68 209.64 252.377 210.528 254.33 210.528C257.957 210.528 260.898 207.588 260.898 203.962C260.898 203.945 260.888 203.923 260.888 203.906C261.861 204.474 262.927 204.89 264.14 204.89C267.764 204.89 270.703 201.95 270.703 198.328C270.703 198.186 270.635 198.076 270.627 197.937C271.605 198.516 272.684 198.943 273.904 198.943C277.537 198.943 280.473 196 280.473 192.374C280.473 191.709 280.28 191.097 280.092 190.493C280.851 190.799 281.67 190.987 282.538 190.987C286.165 190.987 289.106 188.047 289.106 184.421C289.106 182.701 288.407 181.162 287.328 179.992C287.516 180.01 287.672 180.102 287.862 180.102C291.487 180.102 294.425 177.159 294.425 173.533C294.425 170.714 292.634 168.357 290.136 167.426C292.66 166.512 294.488 164.148 294.488 161.304C294.488 158.251 292.355 155.798 289.528 155.062C291.21 153.875 292.376 152.012 292.376 149.797C292.376 146.932 290.517 144.561 287.959 143.665C289.367 142.46 290.303 140.732 290.303 138.738C290.303 135.684 288.178 133.235 285.359 132.499C286.188 131.397 286.775 130.096 286.775 128.607C286.775 125.617 284.739 123.196 282.003 122.403C283.015 121.248 283.68 119.78 283.68 118.127C283.68 114.796 281.164 112.158 277.957 111.728C278.671 110.672 279.187 109.471 279.187 108.102C279.187 104.522 276.316 101.636 272.755 101.561C273.281 100.616 273.66 99.5883 273.66 98.4258C273.66 94.7999 270.718 91.86 267.094 91.86C266.914 91.86 266.768 91.9453 266.591 91.9595C266.656 91.6005 266.807 91.2699 266.807 90.8931C266.807 87.2671 263.866 84.3273 260.241 84.3273C259.793 84.3273 259.397 84.4979 258.966 84.5832C258.969 84.5121 259.008 84.4517 259.008 84.3806C259.008 80.7546 256.069 77.8112 252.442 77.8112C252.124 77.8112 251.853 77.9498 251.548 77.9961C250.789 75.2055 248.349 73.1117 245.319 73.1117C244.703 73.1117 244.143 73.3036 243.572 73.4636C242.427 71.544 240.419 70.1967 238.023 70.1967C237.877 70.1967 237.754 70.2678 237.609 70.2785C232.227 67.431 226.566 65.1275 220.631 63.6451C200.656 58.6503 178.182 62.7638 162.4 75.939Z" fill="white"/>
</mask>
<g mask="url(#mask7_3_36555)">
<path fill-rule="evenodd" clip-rule="evenodd" d="M312.262 43.8135H141.905V232.904H312.262V43.8135Z" fill="#211E1F"/>
</g>
<path d="M76.9887 114.182C51.4769 114.182 30.7955 93.501 30.7955 67.9892C30.7955 42.4773 51.4769 21.7959 76.9887 21.7959C102.501 21.7959 123.182 42.4773 123.182 67.9892C123.182 78.4467 119.707 88.0926 113.849 95.8352L117.679 111.926C118.228 114.232 116.074 116.268 113.802 115.59L96.6682 110.478C96.3927 110.396 96.1405 110.281 95.9131 110.141C90.1376 112.738 83.7319 114.182 76.9887 114.182Z" fill="#e6f1fc"/>
<circle cx="53.5487" cy="68.2431" r="6.1591" fill="#004F9A"/>
<circle cx="75.1043" cy="68.2431" r="6.1591" fill="#004F9A"/>
<circle cx="96.6633" cy="68.2431" r="6.1591" fill="#004F9A"/>
</svg>