<svg width="307" height="329" viewBox="0 0 507 329" fill="none" xmlns="http://www.w3.org/2000/svg">
<rect width="307" height="259" rx="6.91983" />
<path d="M330.268 71.0158C331.123 74.4777 331.852 77.9861 331.824 81.5457C331.684 99.1854 323.753 112.116 308.031 120.338C306.661 121.054 306.629 121.017 307.629 122.253C309.375 124.444 311.564 126.245 314.055 127.541C314.957 128.006 315.78 128.554 315.682 129.706C315.583 130.859 314.686 131.44 313.616 131.793C310.053 132.932 306.22 132.931 302.657 131.792C299.094 130.652 295.98 128.431 293.753 125.441C293.253 124.753 292.818 124.283 291.799 124.335C282.909 124.791 274.103 122.426 266.652 117.581C259.202 112.737 253.492 105.663 250.349 97.3824C250.251 97.1315 250.134 96.8898 250.026 96.6389C249.905 96.2346 249.783 95.8257 249.657 95.4167C245.497 81.476 247.766 68.6753 256.462 57.0146C258.556 54.2264 261.163 51.903 263.762 49.5795C266.393 47.7997 269.02 46.02 271.932 44.6863C295.248 33.9984 322.234 45.8945 329.988 70.2769C330.072 70.5139 330.175 70.7462 330.268 71.0158ZM283.77 87.3822C283.77 88.4278 283.77 89.4733 283.77 90.5189C283.807 91.7364 284.359 92.2894 285.579 92.3033C287.565 92.3266 289.551 92.3033 291.533 92.3033C292.935 92.3033 293.5 91.7225 293.524 90.3098C293.547 88.8971 293.622 87.4426 293.524 86.016C293.374 84.0875 294.178 82.6424 295.571 81.4435C296.506 80.6302 297.473 79.8449 298.445 79.0735C299.997 77.9027 301.441 76.5964 302.759 75.1701C304.97 72.6794 306.129 69.8076 305.806 66.4525C305.339 61.6476 302.731 58.2646 298.567 56.0341C293.472 53.3063 288.163 53.4597 282.845 55.2581C279.658 56.3379 276.8 58.2056 274.539 60.6857C273.605 61.6987 273.511 62.419 274.292 63.2229C275.456 64.4171 276.661 65.5696 277.867 66.722C277.997 66.8692 278.155 66.9892 278.332 67.0749C278.51 67.1606 278.702 67.2104 278.899 67.2212C279.096 67.232 279.292 67.2037 279.478 67.1379C279.664 67.0722 279.834 66.9703 279.98 66.8382C280.625 66.3456 281.256 65.8251 281.882 65.3047C282.906 64.4024 284.106 63.7186 285.406 63.2958C286.707 62.873 288.081 62.7201 289.444 62.8465C291.781 63.0742 293.748 64.0175 294.702 66.3084C295.655 68.5994 294.786 70.5278 293.192 72.224C291.921 73.5341 290.559 74.7546 289.117 75.8764C285.42 78.8365 282.943 82.3635 283.77 87.3822ZM282.569 106.063C282.585 107.643 283.222 109.153 284.345 110.271C285.467 111.389 286.986 112.025 288.574 112.043C290.184 112.018 291.722 111.375 292.867 110.25C294.012 109.124 294.676 107.603 294.72 106.002C294.72 102.75 291.795 99.915 288.462 99.9614C286.872 100.009 285.364 100.674 284.262 101.815C283.16 102.956 282.552 104.481 282.569 106.063Z" fill="#FFC220"/>
<path d="M263.761 49.5629C261.162 51.8863 258.554 54.2098 256.461 56.9979C247.758 68.6834 245.488 81.4903 249.651 95.4187C249.777 95.8276 249.899 96.2365 250.02 96.6408C248.258 98.3834 246.104 99.5637 243.945 100.712C237.503 104.185 230.234 105.852 222.913 105.535C221.539 105.479 220.707 105.888 219.829 107.022C218.427 108.869 216.661 110.411 214.638 111.553C212.615 112.695 210.378 113.413 208.065 113.662C205.36 114.024 202.608 113.754 200.026 112.873C199.035 112.529 198.409 111.943 198.26 110.939C198.11 109.936 198.844 109.28 199.634 108.848C201.096 108.039 202.486 107.106 203.789 106.06C204.827 105.127 205.779 104.102 206.63 102.998C207.13 102.417 207.065 102.017 206.308 101.692C202.059 99.824 198.195 97.1915 194.909 93.927C188.603 87.8992 184.372 80.0461 182.818 71.487C182.738 71.0688 182.668 70.6506 182.594 70.2324C180.985 59.9619 183.275 49.4637 189.017 40.7779C194.759 32.092 203.544 25.8388 213.664 23.2334C233.98 17.8662 255.727 28.8469 263.364 48.35C263.518 48.745 263.63 49.1586 263.761 49.5629ZM249.184 63.5036C249.184 61.7215 248.472 60.0124 247.204 58.7523C245.937 57.4921 244.218 56.7842 242.426 56.7842C240.633 56.7842 238.914 57.4921 237.647 58.7523C236.38 60.0124 235.668 61.7215 235.668 63.5036C235.668 67.0446 238.804 70.1208 242.435 70.1766C245.964 70.2463 249.184 67.0678 249.184 63.5129V63.5036ZM223.035 56.8074C219.469 56.8446 216.44 59.9999 216.492 63.6291C216.529 67.1468 219.688 70.251 223.194 70.2091C226.825 70.1673 230.101 66.9145 230.003 63.4339C229.915 61.6527 229.143 59.973 227.847 58.7403C226.55 57.5077 224.828 56.8159 223.035 56.8074ZM197.306 63.5129C197.317 64.8311 197.72 66.1166 198.467 67.2062C199.213 68.2959 200.268 69.1406 201.497 69.6332C202.727 70.1259 204.076 70.2443 205.374 69.9734C206.672 69.7025 207.859 69.0545 208.786 68.1117C209.712 67.1688 210.336 65.9735 210.579 64.6775C210.821 63.3815 210.671 62.0431 210.147 60.8321C209.623 59.621 208.749 58.592 207.636 57.8755C206.524 57.1589 205.222 56.7872 203.896 56.8074C202.13 56.8356 200.447 57.5559 199.213 58.8117C197.979 60.0675 197.294 61.7572 197.306 63.5129Z" fill="#99C6F1"/>
<path d="M162.212 230.236C158.515 230.171 154.839 229.658 151.267 228.707C143.728 226.588 139.583 221.63 138.442 213.995C137.367 206.792 137.377 199.566 137.816 192.336C138.611 179.324 141.555 166.777 145.943 154.458C149.075 145.629 155.193 140.216 163.816 137.153C178.187 132.042 191.769 133.979 204.635 141.758C209.005 144.403 211.477 148.65 213.398 153.213C216.17 159.802 217.474 166.754 218.343 173.794C219.745 185.119 219.801 196.495 219.703 207.875C219.703 210.854 219.572 213.837 219.909 216.806C220.297 220.268 220.843 223.656 224.003 226.04C216.706 229.309 208.595 230.343 200.705 229.009C200.737 228.298 201.406 228.238 201.831 228.015C203.261 227.257 204.738 226.583 206.196 225.877C208.505 224.948 209.842 223.047 210.87 220.942C213.034 216.592 213.674 211.876 213.866 207.108C214.179 198.719 213.709 190.318 212.464 182.015C211.73 177.089 210.959 172.168 209.776 167.317C209.064 163.072 207.642 158.975 205.57 155.197C205.233 154.579 204.967 154.542 204.453 155.025C202.487 156.803 200.139 158.111 197.587 158.85C193.984 159.974 190.231 160.058 186.515 160.365C183.492 160.611 180.44 160.806 177.505 161.55C177.205 161.615 176.922 161.74 176.672 161.919C176.423 162.097 176.213 162.324 176.056 162.586C174.345 165.277 173.602 168.255 173.252 171.359C172.826 175.3 173.023 179.259 173.177 183.186C173.495 191.346 173.668 199.51 174.004 207.666C174.154 211.332 174.06 215.022 174.658 218.665C175.126 221.49 175.831 224.209 178.168 226.17C178.813 226.713 178.238 226.848 177.865 227.006C176.033 227.766 174.151 228.399 172.233 228.902C168.961 229.799 165.596 230.073 162.212 230.236Z" fill="#FA6400"/>
<path d="M206.188 225.876C204.73 226.583 203.253 227.27 201.823 228.014C201.397 228.237 200.729 228.297 200.696 229.008C197.308 230.867 196.289 234.12 197.934 237.591C198.841 239.506 200.229 241.067 201.514 242.703C201.207 249.475 199.877 256.162 197.57 262.541C196.377 265.854 194.958 269.082 193.321 272.202C193.041 272.731 192.854 273.071 192.129 272.62C178.679 264.32 166.032 255.036 155.46 243.195C153.856 241.414 152.364 239.536 150.992 237.573C153.796 236.643 156.6 235.677 159.003 233.948C160.358 232.982 161.634 231.903 162.213 230.254C165.597 230.091 168.962 229.817 172.252 228.939C174.171 228.436 176.053 227.802 177.884 227.043C178.258 226.885 178.819 226.75 178.188 226.206C175.851 224.245 175.141 221.527 174.678 218.702C174.08 215.058 174.173 211.369 174.024 207.702C173.687 199.547 173.514 191.382 173.196 183.222C173.042 179.277 172.846 175.323 173.271 171.396C173.612 168.292 174.356 165.313 176.075 162.623C176.233 162.361 176.443 162.134 176.692 161.955C176.941 161.777 177.224 161.651 177.524 161.586C180.483 160.843 183.511 160.657 186.535 160.401C190.251 160.095 194.013 160.011 197.607 158.886C200.158 158.147 202.506 156.839 204.473 155.062C204.987 154.597 205.253 154.597 205.59 155.234C207.662 159.012 209.084 163.108 209.796 167.353C207.795 167.976 205.903 168.902 204.187 170.099C201.065 172.376 199.406 175.406 199.719 179.249C200.187 185.16 202.64 190.146 207.309 193.971C207.967 194.525 208.446 195.261 208.683 196.085C209.104 197.405 208.646 198.316 207.281 199.003C204.477 200.458 203.823 201.578 204.113 204.626C204.159 205.128 204.262 205.62 204.342 206.113L188.951 206.466C190.409 208.242 192.162 209.755 194.134 210.941C197.327 212.86 200.678 213.911 204.473 212.916C205.407 212.675 206.164 212.131 207.066 211.885C207.188 212.41 207.305 212.935 207.426 213.455C207.982 215.779 208.464 218.065 208.113 220.505C207.838 222.442 206.982 224.129 206.188 225.876ZM189.596 184.519C189.595 183.94 189.421 183.375 189.095 182.896C188.769 182.417 188.307 182.045 187.768 181.828C187.229 181.611 186.636 181.559 186.067 181.678C185.498 181.797 184.977 182.083 184.572 182.498C184.167 182.913 183.895 183.438 183.791 184.008C183.688 184.577 183.758 185.164 183.992 185.694C184.225 186.223 184.613 186.672 185.104 186.981C185.595 187.291 186.168 187.448 186.75 187.432C187.131 187.428 187.508 187.348 187.858 187.198C188.208 187.048 188.524 186.831 188.79 186.559C189.055 186.287 189.264 185.965 189.404 185.613C189.544 185.26 189.612 184.884 189.606 184.505L189.596 184.519Z" fill="#F8C9A8"/>
<path d="M283.77 87.3844C282.929 82.3471 285.406 78.8387 289.103 75.8693C290.545 74.7475 291.907 73.527 293.178 72.2168C294.772 70.5207 295.65 68.6062 294.688 66.3013C293.725 63.9964 291.771 63.0485 289.43 62.8394C288.072 62.7187 286.704 62.8754 285.409 63.2997C284.114 63.724 282.92 64.4071 281.9 65.3069C281.274 65.8273 280.643 66.3478 279.998 66.8404C279.853 66.9724 279.682 67.0743 279.497 67.1401C279.311 67.2059 279.114 67.2342 278.918 67.2233C278.721 67.2125 278.528 67.1628 278.351 67.0771C278.174 66.9914 278.016 66.8714 277.886 66.7242C276.68 65.5717 275.474 64.4007 274.31 63.225C273.53 62.4211 273.619 61.7009 274.558 60.6878C276.811 58.2117 279.659 56.3443 282.835 55.2602C288.154 53.4619 293.463 53.3085 298.557 56.0363C302.722 58.2668 305.339 61.6497 305.797 66.4547C306.119 69.8097 304.96 72.6815 302.75 75.1723C301.431 76.5985 299.988 77.9049 298.436 79.0757C297.464 79.8471 296.501 80.6324 295.562 81.4456C294.159 82.6445 293.365 84.0897 293.515 86.0182C293.627 87.4448 293.557 88.8807 293.515 90.312C293.472 91.7432 292.921 92.2915 291.524 92.3055C289.542 92.3055 287.556 92.3287 285.569 92.3055C284.349 92.3055 283.798 91.7386 283.761 90.5211C283.77 89.4755 283.77 88.4299 283.77 87.3844Z" fill="white"/>
<path d="M282.568 106.065C282.554 104.488 283.161 102.968 284.258 101.829C285.356 100.691 286.858 100.025 288.443 99.9725C291.776 99.9354 294.706 102.761 294.701 106.014C294.657 107.614 293.993 109.135 292.848 110.261C291.703 111.386 290.165 112.029 288.555 112.055C286.968 112.032 285.453 111.392 284.334 110.272C283.216 109.153 282.582 107.643 282.568 106.065Z" fill="white"/>
<path d="M249.185 63.5131C249.185 67.068 245.965 70.2465 242.437 70.1908C238.805 70.135 235.688 67.0587 235.669 63.5178C235.669 61.7357 236.381 60.0266 237.649 58.7664C238.916 57.5063 240.635 56.7983 242.427 56.7983C244.22 56.7983 245.939 57.5063 247.206 58.7664C248.473 60.0266 249.185 61.7357 249.185 63.5178V63.5131Z" fill="white"/>
<path d="M223.036 56.8066C224.827 56.8187 226.546 57.5121 227.839 58.7443C229.133 59.9766 229.902 61.6543 229.991 63.4331C230.089 66.9137 226.813 70.1665 223.181 70.2084C219.676 70.2502 216.516 67.146 216.479 63.6283C216.442 59.9805 219.47 56.8066 223.036 56.8066Z" fill="white"/>
<path d="M197.307 63.5137C197.294 61.7579 197.98 60.0683 199.214 58.8125C200.448 57.5567 202.131 56.8363 203.897 56.8082C205.234 56.7796 206.55 57.1476 207.676 57.8654C208.802 58.5832 209.688 59.6181 210.22 60.8384C210.752 62.0586 210.907 63.4088 210.665 64.7168C210.422 66.0248 209.793 67.2314 208.858 68.1827C207.923 69.134 206.725 69.787 205.415 70.0583C204.106 70.3296 202.744 70.207 201.505 69.7061C200.266 69.2052 199.205 68.3488 198.457 67.2459C197.709 66.143 197.309 64.8438 197.307 63.5137Z" fill="white"/>
<path d="M204.345 206.093C204.266 205.6 204.163 205.108 204.116 204.606C203.826 201.558 204.462 200.424 207.285 198.983C208.626 198.295 209.084 197.385 208.687 196.065C208.449 195.241 207.971 194.505 207.313 193.951C202.639 190.126 200.2 185.121 199.723 179.229C199.41 175.386 201.069 172.356 204.191 170.079C205.907 168.882 207.799 167.956 209.799 167.333C210.982 172.184 211.753 177.092 212.487 182.031C213.732 190.335 214.202 198.735 213.889 207.125C213.702 211.892 213.057 216.609 210.893 220.958C209.846 223.064 208.509 224.95 206.219 225.894C207.004 224.146 207.86 222.459 208.14 220.503C208.491 218.063 208.009 215.768 207.453 213.454C207.332 212.933 207.215 212.408 207.093 211.883C208.589 210.647 209.79 209.216 210.309 207.297C210.533 206.451 210.491 206.009 209.374 206.079C207.691 206.163 206.018 206.088 204.345 206.093ZM208.453 185.279C208.774 185.284 209.093 185.225 209.391 185.105C209.689 184.985 209.959 184.807 210.186 184.581C210.413 184.356 210.593 184.087 210.713 183.791C210.834 183.495 210.893 183.178 210.888 182.858C210.887 182.213 210.63 181.594 210.172 181.136C209.714 180.679 209.093 180.419 208.444 180.414C207.795 180.43 207.178 180.694 206.721 181.153C206.265 181.611 206.004 182.227 205.995 182.872C205.995 183.191 206.06 183.507 206.184 183.801C206.308 184.096 206.49 184.362 206.719 184.586C206.947 184.81 207.218 184.987 207.516 185.106C207.814 185.225 208.132 185.284 208.453 185.279Z" fill="#FBB68E"/>
<path d="M204.345 206.094C206.018 206.094 207.691 206.164 209.36 206.061C210.468 205.992 210.51 206.433 210.295 207.279C209.776 209.198 208.575 210.629 207.079 211.865C206.177 212.112 205.401 212.655 204.485 212.897C200.709 213.891 197.339 212.841 194.147 210.922C192.171 209.734 190.414 208.217 188.955 206.438L204.345 206.094Z" fill="white"/>
<path d="M189.606 184.506C189.58 185.257 189.263 185.969 188.721 186.493C188.179 187.017 187.454 187.312 186.698 187.316C185.942 187.32 185.214 187.033 184.666 186.516C184.118 185.998 183.793 185.289 183.759 184.538C183.741 184.147 183.803 183.756 183.941 183.389C184.079 183.022 184.29 182.687 184.561 182.403C184.832 182.119 185.159 181.893 185.52 181.737C185.882 181.582 186.271 181.5 186.665 181.498C187.059 181.496 187.45 181.573 187.813 181.724C188.176 181.876 188.505 182.099 188.78 182.379C189.054 182.66 189.269 182.993 189.411 183.359C189.553 183.724 189.619 184.114 189.606 184.506Z" fill="#1C1A1A"/>
<path d="M208.454 185.279C208.134 185.284 207.815 185.225 207.517 185.106C207.219 184.987 206.948 184.81 206.72 184.586C206.491 184.362 206.309 184.096 206.185 183.801C206.061 183.507 205.997 183.191 205.996 182.872C206.006 182.227 206.266 181.611 206.723 181.153C207.179 180.694 207.796 180.43 208.445 180.414C209.094 180.419 209.715 180.679 210.173 181.136C210.631 181.594 210.888 182.213 210.889 182.858C210.894 183.178 210.835 183.495 210.714 183.791C210.594 184.087 210.415 184.356 210.187 184.581C209.96 184.807 209.69 184.985 209.392 185.105C209.094 185.225 208.776 185.284 208.454 185.279Z" fill="#1C1A1A"/>
<rect x="104.889" y="315.134" width="60.7654" height="13.2099" fill="#091936"/>
<path fill-rule="evenodd" clip-rule="evenodd" d="M363.472 266.069C363.472 258.85 369.416 252.999 376.748 252.999H400.723C408.055 252.999 414 258.85 414 266.069V301.382H409.687V328.319H363.472V266.069Z" fill="#0071CE"/>
<path fill-rule="evenodd" clip-rule="evenodd" d="M396.841 328.345H304.513C304.12 307.087 306.842 291.679 318.801 276.224C322.322 271.672 326.216 267.29 328.551 262.052C330.886 256.814 329.905 251.075 328.228 245.597C322.802 227.884 317.185 241.766 309.336 236.805C303.313 232.995 299.572 221.645 298.064 214.756C296.552 207.867 291.743 177.144 299.058 162.301C306.409 147.382 321.385 136.26 340.891 142.072C353.961 145.965 363.086 158.527 365.774 171.705C371.697 200.728 344.588 235.924 379.161 264.155C392.52 275.066 397.744 301.673 396.841 328.345Z" fill="#CC8B58"/>
<path d="M327.023 265.025C327.588 265.068 328.154 265.114 328.719 265.16C330.304 265.29 331.889 265.419 333.464 265.467C347.758 265.903 357.94 259.472 367.166 250.558C369.915 255.226 373.795 259.775 379.161 264.157C392.519 275.065 397.745 301.673 396.841 328.345H304.513C304.122 307.087 306.845 291.679 318.8 276.224C319.451 275.382 320.116 274.546 320.78 273.71C323.009 270.904 325.243 268.09 327.023 265.025Z" fill="#D3EFF8"/>
<path d="M325.124 267.993H383.018C384.859 270.188 386.503 272.731 387.96 275.562H319.316C319.8 274.943 320.29 274.326 320.78 273.709C322.272 271.832 323.766 269.951 325.124 267.993Z" fill="#29B8FF"/>
<path d="M315.241 281.238H390.491C391.413 283.628 392.231 286.16 392.948 288.807H311.035C312.231 286.252 313.625 283.738 315.241 281.238Z" fill="#29B8FF"/>
<path d="M308.715 294.484H394.299C394.807 296.937 395.239 299.466 395.597 302.052H306.567C307.14 299.465 307.849 296.949 308.715 294.484Z" fill="#29B8FF"/>
<path d="M305.537 307.727H396.258C396.495 310.215 396.669 312.743 396.782 315.296H304.759C304.93 312.692 305.184 310.174 305.537 307.727Z" fill="#29B8FF"/>
<path d="M304.517 320.972H396.933C396.956 323.421 396.925 325.883 396.841 328.345H304.513C304.466 325.807 304.464 323.353 304.517 320.972Z" fill="#29B8FF"/>
<path d="M298.479 163.564C301.89 163.704 305.311 165.359 307.634 168.128C311.381 172.597 312.364 179.391 310.668 185.158C309.388 189.508 306.317 191.972 303.826 193.971C301.782 195.612 300.128 196.939 300.174 198.739C300.072 205.079 306.402 207.546 311.301 207.557C306.573 215.953 305.552 226.617 308.226 235.999C302.849 231.584 299.477 221.212 298.064 214.756C296.595 208.057 292.004 178.821 298.479 163.564Z" fill="black" fill-opacity="0.1"/>
<path d="M300.31 189.726C298.164 189.252 296.894 187.194 297.475 185.132C298.057 183.069 300.268 181.781 302.414 182.255C304.562 182.728 305.831 184.784 305.251 186.847C304.667 188.911 302.457 190.199 300.31 189.726Z" fill="#211E1F"/>
<path d="M326.744 191.046C324.598 190.572 323.327 188.515 323.91 186.453C324.49 184.389 326.703 183.102 328.849 183.575C330.997 184.048 332.266 186.105 331.685 188.168C331.102 190.232 328.892 191.521 326.744 191.046Z" fill="#211E1F"/>
<path fill-rule="evenodd" clip-rule="evenodd" d="M323.959 214.618H302.137C302.137 214.618 303.344 220.949 310.345 221.53C319.314 222.276 323.959 214.618 323.959 214.618Z" fill="white"/>
<path d="M358.478 328.345V279.363C358.478 269.734 363.536 261.26 371.236 256.351C372.381 257.74 373.645 259.117 375.038 260.479C368.492 264.314 364.086 271.335 364.086 279.363V328.345H358.478Z" fill="#0071CE"/>
<path d="M301.985 157.18H331.254C341.249 157.18 349.356 165.159 349.356 175V197.14H365.077C366.509 188.372 367.426 179.798 365.775 171.705C363.085 158.527 353.962 145.965 340.892 142.072C337.285 140.997 333.836 140.501 330.558 140.501C318.21 140.502 308.335 147.542 301.985 157.18Z" fill="#211E1F"/>
<path fill-rule="evenodd" clip-rule="evenodd" d="M360.08 208.072C364.091 208.419 367.66 205.471 368.01 201.525L368.659 194.246C369.009 190.298 366.016 186.784 362.005 186.438C357.996 186.092 354.428 189.041 354.078 192.987L353.428 200.266C353.076 204.215 356.07 207.726 360.08 208.072Z" fill="#CC8B58"/>
<path fill-rule="evenodd" clip-rule="evenodd" d="M217.3 257.553C211.912 252.739 206.524 247.926 201.513 242.713C201.209 249.484 199.882 256.171 197.578 262.55C196.386 265.864 194.967 269.092 193.33 272.211L193.326 272.219C193.048 272.744 192.864 273.092 192.138 272.63C178.687 264.33 166.04 255.046 155.469 243.205C153.86 241.415 152.365 239.528 150.991 237.555C150.646 237.658 150.302 237.772 149.958 237.886C149.603 238.004 149.247 238.122 148.888 238.228C137.849 241.546 128.997 247.913 122.211 257.151C117.654 263.364 95.4303 320.999 93 328.263C93.0935 328.476 110.173 328.345 110.173 328.345C119.103 328.345 122.221 325.646 124.241 323.898C126.703 321.767 127.534 321.047 135.272 328.345C141.877 328.345 147.161 328.345 151.515 328.263C151.652 328.269 151.79 328.276 151.928 328.284C152.295 328.303 152.662 328.323 153.029 328.323H239.216H243.539C243.513 327.001 243.492 325.678 243.472 324.355C243.428 321.578 243.384 318.8 243.296 316.027C243.253 314.712 243.223 313.396 243.192 312.079C243.083 307.356 242.974 302.63 242.291 297.96C240.454 285.427 235.542 274.368 226.073 265.511C223.19 262.814 220.245 260.183 217.3 257.553Z" fill="#091936"/>
</svg>
