<svg width="255" height="213" fill="none" xmlns="http://www.w3.org/2000/svg"><path fill-rule="evenodd" clip-rule="evenodd" d="M146.863 72.09c7.466 0 9.012 1.547 9.012 9.012v90.114c0 7.465-1.546 9.011-9.012 9.011H70.667l-43.204 32.667v-32.667H9.44c-7.465 0-9.011-1.546-9.011-9.011V81.102c0-7.465 1.546-9.011 9.011-9.011h137.423Z" fill="#29B8FF"/><rect x="27.463" y="99.125" width="101.378" height="9.011" rx="4.205" fill="#fff"/><rect x="27.463" y="121.653" width="101.378" height="9.011" rx="4.205" fill="#fff"/><rect x="27.463" y="144.182" width="64.206" height="9.011" rx="4.205" fill="#fff"/><path fill-rule="evenodd" clip-rule="evenodd" d="M108.565 0c-7.465 0-9.011 1.546-9.011 9.011v90.114c0 7.465 1.546 9.011 9.011 9.011h76.197l43.204 32.667v-32.667h18.023c7.465 0 9.011-1.546 9.011-9.011V9.011C255 1.546 253.454 0 245.989 0H108.565Z" fill="#E8E8E8"/><rect width="101.378" height="9.011" rx="4.205" transform="matrix(-1 0 0 1 227.966 27.034)" fill="#686868"/><rect width="101.378" height="9.011" rx="4.205" transform="matrix(-1 0 0 1 227.966 49.563)" fill="#686868"/><rect width="64.206" height="9.011" rx="4.205" transform="matrix(-1 0 0 1 190.794 72.09)" fill="#686868"/></svg>